<svg width="126" height="84" viewBox="0 0 126 84" fill="none" xmlns="http://www.w3.org/2000/svg">
<path d="M64.0363 29.0032L67.909 28.9693L56.5468 56.6947L44.6727 29.1837L48.5454 29.1499L56.4578 47.4078L64.0363 29.0032Z" fill="#A3FF8C"/>
<path d="M69.7452 18.4638L73.2952 18.4299L73.3286 22.3568L69.7786 22.3907L69.7452 18.4638ZM69.8454 28.9468L73.3954 28.913L73.6513 55.6904L70.1014 55.7242L69.8454 28.9468Z" fill="#A3FF8C"/>
<path d="M81.1185 32.4336L76.3444 32.4788L76.311 28.8791L81.0851 28.834L81.0183 21.3074L84.5572 19.5019L84.6462 28.8001L89.3647 28.755L89.3981 32.3546L84.6796 32.3998L84.9022 55.5776L81.3522 55.6114L81.1185 32.4336Z" fill="#A3FF8C"/>
<path d="M94.161 67.9225L96.9209 65.8011C98.3231 67.8774 100.326 68.9155 102.953 68.8817C105.1 68.8591 106.825 68.1256 108.127 66.67C109.429 65.2143 110.064 63.5104 110.052 61.5469L109.975 53.3659C108.016 55.1713 105.69 56.0967 103.03 56.1192C100.059 56.1531 97.5552 55.1488 95.5076 53.1176C93.4599 51.0865 92.425 48.5588 92.4027 45.5572L92.2469 28.7324L95.7969 28.6986L95.9527 45.5233C95.975 47.4868 96.6872 49.1456 98.1005 50.511C99.5138 51.8764 101.139 52.5421 102.997 52.5308C105.022 52.5083 106.681 51.7861 107.983 50.353C109.285 48.9199 109.919 47.2724 109.908 45.3879L109.752 28.5632L113.302 28.5293L113.614 61.5244C113.647 64.5372 112.623 67.11 110.553 69.2428C108.483 71.3755 105.968 72.4588 102.997 72.4926C99.2913 72.5265 96.3422 71.0031 94.161 67.9225Z" fill="#A3FF8C"/>
<path d="M17.106 47.5917C16.6147 47.5917 16.1363 47.4081 15.7484 47.0541L10.3179 42.0066C9.51629 41.2461 9.46457 39.9613 10.2145 39.1484C10.9644 38.3225 12.2315 38.2831 13.0332 39.0435L18.4637 44.0911C19.2653 44.8516 19.317 46.1364 18.5671 46.9493C18.1792 47.3819 17.6361 47.5917 17.106 47.5917Z" fill="#A3FF8C"/>
<path d="M17.106 47.5917C16.6406 47.5917 16.1751 47.4212 15.7872 47.0935C14.9597 46.3593 14.8692 45.0744 15.5933 44.2354L24.4372 34.0353C25.1612 33.1962 26.4284 33.1044 27.2559 33.8386C28.0834 34.5728 28.1739 35.8576 27.4498 36.6967L18.6059 46.8968C18.218 47.3557 17.662 47.5917 17.106 47.5917Z" fill="#A3FF8C"/>
<path d="M24.825 59.9026H10.0852C4.047 59.9026 0 55.6285 0 49.2436V35.189C0 28.8959 4.15044 24.5038 10.0722 24.5038H22.5365C23.4804 24.5038 24.2432 25.2773 24.2432 26.2344C24.2432 27.1915 23.4804 27.965 22.5365 27.965H10.0722C5.97353 27.965 3.41344 30.7314 3.41344 35.1759V49.2305C3.41344 53.6619 5.9606 56.4283 10.0722 56.4283H24.8121C28.9108 56.4283 31.4709 53.675 31.4709 49.2305V38.8338C31.4709 37.8767 32.2338 37.1031 33.1776 37.1031C34.1215 37.1031 34.8844 37.8767 34.8844 38.8338V49.2305C34.8973 55.6285 30.8503 59.9026 24.825 59.9026Z" fill="white"/>
<path d="M31.4321 32.4358C29.4797 32.4358 27.8765 30.8231 27.8765 28.8303C27.8765 26.8506 29.4668 25.2249 31.4321 25.2249C33.3845 25.2249 34.9878 26.8375 34.9878 28.8303C34.9878 30.81 33.3974 32.4358 31.4321 32.4358ZM31.4321 27.493C30.7081 27.493 30.1133 28.0961 30.1133 28.8303C30.1133 29.5645 30.7081 30.1676 31.4321 30.1676C32.1562 30.1676 32.751 29.5645 32.751 28.8303C32.751 28.0961 32.1691 27.493 31.4321 27.493Z" fill="white"/>
</svg>
